<svg height="50" width="50" xmlns="http://www.w3.org/2000/svg" viewBox="0 0 14 14"><defs><style>.a{fill:none;stroke:#000;stroke-linecap:round;stroke-linejoin:round;}</style></defs><title>interface-favorite-like-1</title><path class="a" d="M3.367,5.853,5.909,1.786a1.108,1.108,0,0,1,.939-.521h0A1.107,1.107,0,0,1,7.955,2.372V5.28h4.4A1.146,1.146,0,0,1,13.486,6.6l-.794,5.161a1.146,1.146,0,0,1-1.133.973H4.986a2.012,2.012,0,0,1-.894-.211l-.725-.363"/><line class="a" x1="3.367" y1="5.853" x2="3.367" y2="12.161"/><path class="a" d="M1,5.853H3.367a0,0,0,0,1,0,0v6.308a0,0,0,0,1,0,0H1a.5.5,0,0,1-.5-.5V6.353A.5.5,0,0,1,1,5.853Z"/></svg>