<svg height="50" width="50" xmlns="http://www.w3.org/2000/svg" viewBox="0 0 14 14"><defs><style>.a{fill:none;stroke:#000;stroke-linecap:round;stroke-linejoin:round;}</style></defs><title>interface-text-formatting-text-to-speech-2</title><line class="a" x1="3" y1="7.5" x2="11" y2="7.5"/><line class="a" x1="7" y1="5.5" x2="7" y2="7.5"/><line class="a" x1="9.5" y1="7.5" x2="4.5" y2="13.5"/><line class="a" x1="4.5" y1="7.5" x2="9.5" y2="13.5"/><path class="a" d="M.5,4A3.5,3.5,0,0,1,4,.5"/><path class="a" d="M.5,4A3.5,3.5,0,0,1,4,.5"/><path class="a" d="M3,4A1,1,0,0,1,4,3"/><path class="a" d="M3,4A1,1,0,0,1,4,3"/><path class="a" d="M10,.5A3.5,3.5,0,0,1,13.5,4"/><path class="a" d="M10,.5A3.5,3.5,0,0,1,13.5,4"/><path class="a" d="M10,3a1,1,0,0,1,1,1"/><path class="a" d="M10,3a1,1,0,0,1,1,1"/></svg>