<svg height="50" width="50" xmlns="http://www.w3.org/2000/svg" viewBox="0 0 14 14"><defs><style>.a{fill:none;stroke:#000;stroke-linecap:round;stroke-linejoin:round;}</style></defs><path class="a" d="M5.741,8.581a.18.18,0,0,0-.177.122h0c-.057.2.256.225.306.043a.131.131,0,0,0-.129-.165M4.67,10.156a.406.406,0,0,0-.433-.5.573.573,0,0,0-.539.409.4.4,0,0,0,.433.5.555.555,0,0,0,.539-.41Zm6.347-2.783a2.589,2.589,0,0,0-.683-.337c-.247-.093-.286-.136-.183-.382a2.211,2.211,0,0,0,.155-.535c.149-.93-.6-1.238-1.462-1.2a4.666,4.666,0,0,0-1.11.207c-.231.065-.666.288-.754.139-.049-.075.018-.187.042-.259.153-.5.232-1.207-.255-1.537a1.811,1.811,0,0,0-1.378-.083c-2.1.627-5.381,3.5-4.827,5.9a2.781,2.781,0,0,0,.69,1.264A6.2,6.2,0,0,0,4.631,12.2a8.7,8.7,0,0,0,2.742.05,6.089,6.089,0,0,0,3.878-1.974,1.885,1.885,0,0,0,.1-2.626,2.674,2.674,0,0,0-.333-.272Z"/><path class="a" d="M8.817,1.81a3.678,3.678,0,0,1,4.611,4.26"/><path class="a" d="M9.563,3.5a1.672,1.672,0,0,1,.577-.077,1.7,1.7,0,0,1,1.631,1.758,1.713,1.713,0,0,1-.107.533"/><path class="a" d="M8.606,7.921a5.359,5.359,0,0,0-4.387-.529A4.112,4.112,0,0,0,2.305,8.537,1.851,1.851,0,0,0,2.033,10.8c.734,1.192,2.537,1.474,4.562,1.4a3.905,3.905,0,0,0,2.791-1.787,1.932,1.932,0,0,0-.78-2.493Z"/></svg>